<svg version="1.1" id="Layer_1" xmlns="http://www.w3.org/2000/svg" xmlns:xlink="http://www.w3.org/1999/xlink" x="0px" y="0px"
	 width="100%" viewBox="0 0 330 200" enable-background="new 0 0 330 200" xml:space="preserve">
<path fill="#FFFFFE" opacity="1.000000" stroke="none" 
	d="
M174.755402,1.311099 
	C225.812302,1.000000 276.624664,1.025117 327.436768,0.932395 
	C330.237793,0.927283 331.102905,1.269859 331.096558,4.434177 
	C330.967804,68.740623 330.965515,133.047470 331.097321,197.353897 
	C331.104248,200.731033 330.025299,201.060486 327.148987,201.058624 
	C219.693512,200.989120 112.237984,200.985916 4.782541,201.072021 
	C1.743244,201.074448 0.908566,200.492828 0.914302,197.285431 
	C1.029021,133.145523 1.043350,69.005264 0.888107,4.865533 
	C0.879162,1.169751 1.992716,0.918036 5.131571,0.923996 
	C60.441792,1.029025 115.752266,1.000000 171.531342,1.000000 
	C174.015915,3.958122 171.429306,5.886318 170.219238,8.466894 
	C169.800613,9.169327 169.557068,9.565451 169.137650,10.256020 
	C168.841873,10.742967 168.719345,10.933856 168.399414,11.398236 
	C166.345428,14.024218 165.786224,16.769184 165.825150,20.014534 
	C165.940872,21.030922 165.901230,21.707226 165.632919,22.698654 
	C164.438370,24.372406 164.293625,25.849201 165.014648,27.785372 
	C165.566071,31.734587 165.448166,35.336140 165.190140,39.302628 
	C164.936768,40.983212 164.252609,42.318752 165.457184,43.898918 
	C165.857269,44.894833 165.922119,45.600193 165.831467,46.678696 
	C165.393890,48.434872 165.108414,49.870934 164.028778,51.366833 
	C162.298965,52.748543 162.285431,54.363586 162.336884,56.361420 
	C162.392807,58.775894 162.353699,60.824245 162.381409,63.266376 
	C162.356003,65.302643 162.350464,66.941368 162.574402,68.576836 
	C162.737503,69.767830 162.642715,70.920090 161.311951,71.452835 
	C160.092987,71.940842 159.065659,71.482338 158.178864,70.639954 
	C156.390656,68.941338 155.174942,66.743240 153.066635,64.795609 
	C152.473831,64.089821 152.221161,63.632812 151.904434,62.779564 
	C150.722916,58.592400 148.927200,55.013302 147.963959,50.775543 
	C147.838791,49.940155 147.799835,49.462982 147.768555,48.636124 
	C147.768478,46.709316 147.720459,45.144779 146.576752,43.493179 
	C146.257034,42.775543 146.122452,42.349396 145.961914,41.588394 
	C145.726181,39.321278 145.300964,37.490990 143.385742,36.011395 
	C142.989853,35.648464 142.838974,35.494846 142.492676,35.085037 
	C142.180664,34.649677 142.064087,34.470501 141.780579,34.015518 
	C141.502762,33.552792 141.391861,33.365868 141.111450,32.897079 
	C140.288422,31.457033 139.416214,30.449995 138.540802,29.119274 
	C138.311646,28.584772 138.113266,28.416216 137.774872,28.581144 
	C137.743881,29.085381 137.723969,29.393456 137.655640,29.974892 
	C137.576279,30.830889 137.616150,31.385054 138.350647,31.991041 
	C138.757309,32.316277 138.919022,32.450119 139.282410,32.828941 
	C139.676147,33.452206 139.820419,33.847534 139.945160,34.575603 
	C139.986954,35.316227 139.955322,35.741795 139.839325,36.485661 
	C139.682007,37.425430 139.543472,38.048168 140.190857,38.832565 
	C140.601486,39.181561 140.770218,39.319561 141.169754,39.699497 
	C141.509537,40.141239 141.618515,40.341038 141.832306,40.871246 
	C142.175995,42.384682 142.084000,43.564621 141.836472,45.100922 
	C141.100815,48.346821 141.135406,51.243969 141.761414,54.503181 
	C142.062637,55.826515 142.113571,56.797688 141.832962,58.112045 
	C141.249008,59.907791 139.034164,60.094845 139.228455,62.291451 
	C139.363205,62.811562 139.406403,63.023979 139.429199,63.563522 
	C139.263016,64.305862 139.062897,64.692406 138.581329,65.289780 
	C137.880859,65.972824 137.337952,66.323853 136.487671,66.779404 
	C135.218704,67.317154 134.441193,67.931831 133.928802,69.260056 
	C133.677292,69.740067 133.564499,69.929276 133.238144,70.378105 
	C130.564240,72.937775 128.717697,75.469460 129.915283,79.464989 
	C130.404938,82.245453 130.412003,84.682251 130.021423,87.466263 
	C129.745346,88.417603 129.220032,88.944824 129.575623,89.991844 
	C129.742371,90.771362 129.768982,91.226547 129.714233,92.026779 
	C129.211212,94.348244 129.143738,96.291748 129.975067,98.220825 
	C130.646240,99.778183 131.963486,101.062096 133.394852,100.328857 
	C136.524750,98.725525 140.388947,99.460564 143.467651,96.819580 
	C144.205627,96.437096 144.667862,96.334183 145.506729,96.340942 
	C148.480652,97.369057 149.305069,98.912659 147.162231,101.568253 
	C146.766220,101.989258 146.598312,102.145737 146.153427,102.499664 
	C145.495926,102.921295 145.105286,103.125992 144.406906,103.423828 
	C143.713928,103.646935 143.309906,103.715195 142.607941,103.737473 
	C141.753845,103.732185 141.205292,103.796753 140.467987,104.246864 
	C140.070633,104.523224 139.908615,104.634155 139.492355,104.903236 
	C138.885193,105.267815 138.528717,105.467873 137.889969,105.813965 
	C136.442841,106.548294 135.213898,106.928207 133.600418,107.108887 
	C132.074738,107.227516 130.825043,107.157288 129.549484,108.188896 
	C128.928192,108.578110 128.549255,108.760590 127.859009,109.031799 
	C127.157295,109.292236 126.752106,109.431786 126.037064,109.668381 
	C125.312683,109.883759 124.891045,109.972076 124.146515,110.076050 
	C122.383644,110.222511 120.883232,110.097458 119.375916,111.278549 
	C118.684990,111.599861 118.259079,111.688362 117.490929,111.704681 
	C115.874519,111.414192 114.597084,111.202011 113.212219,112.393951 
	C112.520210,112.756027 112.097801,112.898933 111.334534,113.065887 
	C108.812241,113.247368 106.675728,113.558685 104.599434,115.157135 
	C103.932236,115.516121 103.522942,115.640381 102.781647,115.701157 
	C101.503036,115.623596 100.504257,115.296501 99.402100,116.253380 
	C98.791367,116.635017 98.416389,116.812363 97.732544,117.082466 
	C97.030113,117.343895 96.623016,117.482109 95.899719,117.706612 
	C94.728920,118.009766 93.862198,118.019035 92.678238,117.875259 
	C91.366737,117.571037 90.380623,117.421051 89.229385,118.330811 
	C88.548981,118.624275 88.131912,118.698929 87.383011,118.698639 
	C85.791771,118.381653 84.547333,118.256622 83.164917,119.364952 
	C82.433945,119.660912 81.987724,119.732368 81.187576,119.723984 
	C77.520454,118.771324 74.523697,119.643188 71.357971,121.503998 
	C70.355934,121.872849 69.656113,121.942001 68.598030,121.877441 
	C65.468834,120.979767 62.975483,121.744865 60.308060,123.376099 
	C59.361736,123.814018 58.683445,123.909576 57.647278,123.875374 
	C54.592422,123.260559 52.088150,123.912277 49.384293,125.310318 
	C48.652855,125.627907 48.206501,125.714508 47.406216,125.728073 
	C44.065941,124.836212 41.318096,125.334915 38.512573,127.363159 
	C37.769260,127.653061 37.324520,127.738548 36.533974,127.744057 
	C34.536732,127.420799 32.869644,126.863411 30.968431,127.996155 
	C30.532764,128.305237 30.355434,128.425537 29.901260,128.710846 
	C29.247942,129.078049 28.863436,129.263580 28.174284,129.544830 
	C27.273415,129.824097 26.656677,129.874695 25.738979,129.834076 
	C24.673685,129.727570 23.955173,129.868225 23.061928,130.468964 
	C22.120560,130.986420 21.365431,131.234955 20.512463,131.929703 
	C19.221756,134.396759 20.328341,136.637482 20.382277,138.874786 
	C20.448639,141.627518 22.657024,141.636169 25.049103,141.667633 
	C34.200214,142.118515 42.066132,138.649384 49.912014,135.541412 
	C62.944065,130.379074 76.052620,125.699524 90.088104,124.092285 
	C94.745140,123.558990 99.388046,123.643669 104.037254,123.795433 
	C108.400421,123.937851 110.799995,127.127289 112.989990,130.258774 
	C116.625038,135.456543 120.655373,140.263275 125.098259,144.803986 
	C142.575180,162.665695 163.936859,168.154434 188.091705,164.938141 
	C212.213898,161.726212 232.665833,151.209244 249.742386,133.925980 
	C256.424408,127.163063 261.014282,119.162277 264.575134,110.055038 
	C264.922394,109.285141 265.128693,108.857323 265.470337,108.120682 
	C265.767029,107.408195 265.944336,107.011887 266.278320,106.349548 
	C266.845123,105.434258 267.314484,104.810165 267.268280,103.687775 
	C267.222809,102.983276 267.231842,102.573242 267.296448,101.841599 
	C267.116394,97.137253 263.545410,98.793282 260.909546,98.114594 
	C260.332977,98.048775 260.103790,98.011223 259.536682,97.891815 
	C258.751190,97.680275 258.303497,97.550980 257.510132,97.341751 
	C256.456604,97.096016 255.767395,96.874405 254.787140,96.373901 
	C253.386520,95.092880 252.240433,94.043121 252.659561,91.938034 
	C255.458389,90.161209 258.005951,91.570663 260.580597,91.891838 
	C262.704712,92.156815 264.790955,92.977966 267.241272,91.998917 
	C267.866425,91.578415 268.174713,91.287109 268.593750,90.673637 
	C268.925232,90.010933 269.112640,89.631905 269.460236,88.982864 
	C270.038086,88.043930 270.555054,87.413300 270.330566,86.273972 
	C270.124207,85.853180 270.017456,85.699203 269.720459,85.344650 
	C269.085419,84.768379 268.546722,84.719162 267.715698,84.715172 
	C267.047089,84.719162 266.667389,84.665146 266.019043,84.467735 
	C265.041046,83.990814 264.306030,83.776581 263.188080,83.980644 
	C261.101471,84.286438 259.326508,84.327805 257.235382,83.981995 
	C255.951096,83.624840 255.174988,82.845711 253.810699,82.830414 
	C252.909973,82.896011 252.310959,82.867798 251.431396,82.650230 
	C250.281509,82.055298 249.395081,81.655357 248.040894,81.993210 
	C245.665482,82.340096 243.606232,82.375122 241.212799,81.981171 
	C239.832626,81.539383 238.930466,80.786285 237.415100,80.720078 
	C236.587982,80.581673 236.165115,80.363365 235.656799,79.701172 
	C235.866913,76.359024 238.582687,77.079208 240.695358,76.168053 
	C243.098923,75.636696 245.141251,75.626442 247.541367,75.904114 
	C249.374283,76.212723 250.466843,77.586578 252.377808,77.367020 
	C253.019714,77.232483 253.374573,77.145958 253.937943,76.932419 
	C254.421829,76.576805 254.502182,76.282379 254.306244,75.669113 
	C254.012009,74.629799 253.988541,73.843254 254.112335,72.750443 
	C254.335220,71.507942 254.662781,70.545425 253.593628,69.513466 
	C252.670044,68.479637 252.243729,67.525528 251.891083,66.183846 
	C251.671738,65.474777 251.527695,65.076279 251.215515,64.399139 
	C250.653976,63.333118 250.323898,62.529327 250.417480,61.297935 
	C251.273804,59.572945 251.038315,58.698326 248.948074,58.485615 
	C243.608063,54.339989 239.491089,48.890106 232.067352,48.013317 
	C231.471176,47.872143 231.234360,47.800831 230.653778,47.582253 
	C222.029953,43.346291 212.935516,42.360336 203.692963,40.472404 
	C202.843521,40.316933 202.366241,40.207077 201.556000,39.952194 
	C197.908066,38.209465 194.521301,36.729851 191.143188,34.517815 
	C190.666733,34.234108 190.478073,34.119923 190.011536,33.831291 
	C189.364090,33.426876 188.996323,33.194092 188.355499,32.781181 
	C187.912384,32.463272 187.743835,32.323051 187.355301,31.937611 
	C186.178574,30.133055 184.668579,29.176767 182.979385,27.874870 
	C178.115936,21.801105 174.547134,15.489882 173.780441,7.951284 
	C173.565048,5.833467 173.363464,3.625304 174.755402,1.311099 
z"/>
<path fill="#FBC661" opacity="1.000000" stroke="none" 
	d="
M135.791718,66.230804 
	C136.440445,65.714691 136.865341,65.418442 137.523041,65.003006 
	C138.129730,64.768799 138.436386,64.556671 138.761627,63.973434 
	C138.847626,63.699711 138.733047,63.362896 138.676666,63.194183 
	C138.552048,62.602268 138.637512,62.209171 139.039490,61.589607 
	C139.497162,61.011444 139.770813,60.687828 140.271317,60.125874 
	C140.664474,59.738419 140.833847,59.591881 141.212036,59.175091 
	C142.246796,54.414539 141.485962,49.797848 142.707764,45.009388 
	C143.784576,44.059566 144.766602,43.956390 146.163437,44.206078 
	C147.899109,44.906239 147.858154,46.310760 148.492676,47.753815 
	C148.735031,48.504707 148.800476,48.930984 148.845352,49.680977 
	C148.408340,54.318260 150.363907,57.910213 152.507629,61.789650 
	C152.822006,62.440010 152.951050,62.802029 153.124878,63.449318 
	C154.631210,66.303474 156.474792,68.606956 158.347015,70.868271 
	C159.260117,71.971138 160.702591,73.162437 162.098923,72.418106 
	C163.309204,71.772949 163.126434,70.131332 162.476837,68.862671 
	C161.775253,67.492432 162.257477,65.920609 161.519531,64.233215 
	C161.305084,61.604740 161.250809,59.280968 161.289673,56.530865 
	C162.060684,55.157619 163.035828,55.066021 164.438263,55.266693 
	C166.405685,56.202667 167.228119,57.700882 168.197006,59.523983 
	C168.990555,60.874290 169.712341,61.850437 170.480057,62.965275 
	C170.299530,61.692745 169.251617,61.136497 168.600113,59.910366 
	C166.911072,55.753231 165.210800,51.961533 164.992889,47.371582 
	C164.934799,46.273338 164.888153,45.541134 164.757858,44.451298 
	C164.235550,43.338284 163.988251,42.529968 163.982773,41.330116 
	C163.960114,36.644413 163.953125,32.279026 163.930038,27.448174 
	C164.059326,25.831387 163.895050,24.638826 164.531586,23.219185 
	C164.797379,22.183470 164.905136,21.460445 165.014923,20.371012 
	C165.399490,17.060057 165.972839,14.171616 167.740402,11.283010 
	C167.982086,11.002809 168.120407,10.612249 168.141235,10.406132 
	C168.238220,9.888348 168.385025,9.614553 168.728134,9.180229 
	C169.548798,6.388533 171.857925,4.523522 172.061462,1.368115 
	C172.750000,1.000000 173.500000,1.000000 174.625000,1.000000 
	C173.691635,11.147531 177.995743,19.397499 183.998383,27.418770 
	C184.971176,29.285593 186.354202,30.335039 187.918152,31.626732 
	C188.208023,31.768969 188.217606,31.868597 188.185425,31.830271 
	C188.380142,32.451092 188.988617,32.497509 189.760040,32.828869 
	C189.989044,33.007782 190.000000,33.000000 189.996429,33.005981 
	C192.816833,36.068779 196.467758,37.708179 200.641022,39.058464 
	C201.423630,39.130718 201.870209,39.172756 202.631500,39.336674 
	C208.783508,41.766384 215.139175,41.857449 221.108658,43.756393 
	C224.219147,44.745869 227.412338,45.598404 230.929077,46.699989 
	C231.310516,46.815109 231.681610,46.782722 231.859436,46.838112 
	C233.166000,48.185619 231.818954,49.959328 233.057404,51.513405 
	C233.572495,52.220768 233.939255,52.657806 234.605347,53.175117 
	C235.110596,53.530674 235.397705,53.730881 235.908615,54.052887 
	C236.446609,54.310101 236.770798,54.416035 237.613083,54.651505 
	C238.243637,54.940220 238.363937,55.075817 238.602234,55.457695 
	C238.885971,56.226662 238.960632,56.769474 239.157700,57.563919 
	C239.517853,58.594265 240.162155,58.994434 241.090454,59.565811 
	C243.539246,62.332966 245.987442,64.790619 245.384399,68.937561 
	C244.406494,69.998421 243.408813,70.310181 242.056870,70.778900 
	C239.049149,71.466484 236.535278,70.272820 233.556778,70.386902 
	C230.726700,70.373657 228.267426,70.074158 225.514969,70.781128 
	C224.557953,71.258781 223.896606,71.507706 222.859283,71.693176 
	C220.728180,71.573929 219.061050,71.859604 217.388885,73.281929 
	C214.883591,74.313248 212.365372,74.412834 209.834732,76.323929 
	C209.037628,76.692795 208.831085,76.764145 208.310028,76.917458 
	C206.024521,77.202095 204.481354,78.373085 202.536987,79.425217 
	C202.051559,79.639275 201.852600,79.712578 201.347580,79.866791 
	C200.230331,80.111221 199.406860,80.218369 198.326019,80.573959 
	C197.648941,80.783234 197.257584,80.875465 196.570862,80.989792 
	C195.532181,81.124100 194.777664,81.189629 193.868378,81.735107 
	C193.159454,82.227699 192.651123,82.482368 191.783844,82.540009 
	C191.068085,82.612648 190.915787,81.486977 190.091217,82.408958 
	C189.666901,82.641281 189.485657,82.714684 189.020111,82.864754 
	C188.162415,83.062752 187.582977,83.157547 186.745605,83.434265 
	C186.288254,83.615562 186.106308,83.692146 185.652344,83.888870 
	C185.015472,84.172218 184.648193,84.329735 183.995621,84.592422 
	C183.130310,84.887276 182.530106,85.002052 181.649002,85.258392 
	C180.968201,85.519310 180.588577,85.700333 179.935211,86.073021 
	C175.059082,88.469940 170.058105,89.548454 164.989090,91.465546 
	C164.229782,91.726830 163.791550,91.859337 163.025787,92.087952 
	C162.485428,92.266411 162.269821,92.339607 161.731842,92.529709 
	C161.194077,92.727425 160.978714,92.808235 160.436935,93.005798 
	C155.603760,94.289360 151.407593,96.538422 146.340363,96.970520 
	C145.550095,96.995102 145.110443,97.023224 144.351440,97.139511 
	C140.935471,99.767212 136.810165,99.132500 133.352249,100.661644 
	C131.874161,101.315285 130.670975,100.248489 129.969193,98.626045 
	C129.155716,96.745384 128.955338,94.838585 128.958542,92.438789 
	C128.945038,91.569946 128.952805,91.117256 128.901505,90.329384 
	C128.770905,89.834763 128.699371,89.675339 128.702789,89.264755 
	C128.851852,85.973969 128.925949,82.934349 128.976624,79.439194 
	C129.054901,75.726822 130.242935,72.918564 132.680649,70.256859 
	C132.916779,69.984871 133.096878,69.661308 133.124969,69.478302 
	C133.658585,68.092903 134.745697,67.384232 135.791718,66.230804 
z"/>
<path fill="#F34A4B" opacity="1.000000" stroke="none" 
	d="
M255.705475,82.288452 
	C258.393646,82.619904 260.749512,82.850609 263.552063,83.055939 
	C264.574341,83.035858 265.103729,83.185410 265.786865,83.711151 
	C266.414642,84.008156 266.824860,84.128075 267.545258,84.329193 
	C268.529144,84.202988 269.071503,84.397652 269.358765,85.229218 
	C269.219513,85.511528 269.322174,85.642319 269.342407,85.722946 
	C271.358978,85.905624 270.620972,87.214249 270.170898,88.626259 
	C269.811493,89.343094 269.733002,89.705528 269.710297,90.343201 
	C269.825684,90.963539 269.730072,91.258247 269.466614,91.742065 
	C265.443817,96.354118 261.232819,92.507950 257.125153,92.222832 
	C255.873016,92.135918 254.661209,91.468147 252.965454,91.055603 
	C252.034912,93.294807 250.517548,91.810272 249.627716,91.697166 
	C237.473053,90.152092 225.339554,89.835846 212.818954,92.020309 
	C211.164581,92.343094 209.901093,92.319687 208.281464,92.167007 
	C207.484283,92.279945 207.034592,92.363045 206.577179,92.402481 
	C207.030304,92.452736 207.481461,92.434273 208.279404,92.391632 
	C210.310074,92.836983 211.938797,92.523964 213.943130,91.969414 
	C225.563187,90.222771 236.704956,91.792679 247.860840,92.837158 
	C250.219269,93.057968 252.295349,94.068329 254.682312,95.453911 
	C255.665665,95.871971 256.271118,96.078270 257.198425,96.291183 
	C257.893402,96.227875 258.231384,96.307335 258.768280,96.677475 
	C259.159698,96.880196 259.316986,96.941879 259.727539,97.010269 
	C262.764954,98.492119 267.002106,97.018158 268.394104,101.579689 
	C268.206451,102.411041 268.080902,102.855476 267.964172,103.647125 
	C267.971313,104.549469 267.868195,105.080666 267.482605,105.819946 
	C267.229767,106.453941 267.094635,106.840958 266.937744,107.535713 
	C266.797607,108.022003 266.679199,108.200546 266.474854,108.688744 
	C255.944397,137.349380 233.669220,152.506592 206.604797,161.939835 
	C191.308212,167.271423 175.515625,168.591537 159.450592,165.321701 
	C141.595917,161.687592 128.088303,151.507660 116.916039,137.670502 
	C116.185211,136.765366 115.318703,135.895981 114.858055,134.857864 
	C110.247650,124.467995 101.706131,123.725502 91.956955,125.019157 
	C78.685486,126.780220 65.957169,130.306839 53.586540,135.351578 
	C44.682102,138.982819 35.827896,142.911606 25.483479,142.964020 
	C18.722725,141.485153 19.717867,136.249054 19.442703,131.357941 
	C20.499779,130.573730 21.403517,130.173950 22.634691,129.596329 
	C23.400862,129.265198 23.848080,129.143539 24.652454,129.034866 
	C25.773735,128.975494 26.547722,128.939972 27.685604,128.765625 
	C28.381014,128.598969 28.667393,128.470520 29.144993,128.203857 
	C29.381346,128.166260 29.721800,128.244019 29.868048,128.148621 
	C31.511486,126.534973 33.442009,127.161377 35.605293,127.000931 
	C36.465092,126.972725 36.933495,126.946228 37.724976,126.774498 
	C40.682713,125.643768 43.309475,124.618942 46.599823,124.977066 
	C47.433449,124.959190 47.883591,124.953163 48.656143,124.841591 
	C51.322472,123.824608 53.786640,123.423950 56.627754,123.025116 
	C57.756382,122.996262 58.508228,122.966270 59.619850,122.821320 
	C62.321075,121.782494 64.678253,120.926628 67.632828,121.032898 
	C68.778366,121.019875 69.546776,120.996651 70.675293,120.831009 
	C74.002792,119.590034 76.998039,118.645782 80.625977,119.046951 
	C81.464638,119.043388 81.910149,119.021812 82.667450,118.873642 
	C83.994568,118.029556 85.152794,117.989845 86.678802,118.058022 
	C87.470772,118.075233 87.914009,118.074982 88.671249,117.959076 
	C89.688560,117.285515 90.476807,116.989456 91.708420,117.084053 
	C93.109070,117.034248 94.186844,116.965240 95.652206,116.775162 
	C96.366959,116.607330 96.651733,116.471603 97.129013,116.198990 
	C97.736633,116.116447 98.109352,116.081841 98.729652,115.908218 
	C99.691071,115.262367 100.479179,114.991241 101.679169,115.011932 
	C102.446976,114.982414 102.896790,114.958954 103.660507,114.804207 
	C106.074722,113.289658 108.627686,113.214012 111.251480,112.282425 
	C111.944252,112.311684 112.269440,112.339577 112.804459,112.223404 
	C113.856773,110.974930 115.083176,111.037132 116.636826,110.998940 
	C117.445030,110.955811 117.894966,110.918816 118.658386,110.749542 
	C120.361183,109.769226 121.893463,109.465103 123.766754,109.225632 
	C124.489494,109.007812 124.941429,108.992310 125.713776,108.860451 
	C126.343903,108.618172 126.631569,108.453690 127.143600,108.213196 
	C127.760162,108.112656 128.130295,108.049576 128.737610,107.829773 
	C130.087494,106.955536 131.324661,106.587883 132.912857,106.242462 
	C134.601181,105.714966 135.994293,105.322189 137.714767,104.768143 
	C138.244034,104.545441 138.445938,104.484024 138.913727,104.250763 
	C139.179596,104.078926 139.616211,104.087280 139.803589,103.975204 
	C140.431824,103.514076 140.883194,103.184525 141.733475,103.063126 
	C142.476578,102.996689 142.939362,102.942154 143.722137,102.743073 
	C144.236435,102.542992 144.430740,102.487457 144.856201,102.235825 
	C145.087341,102.039726 145.565414,102.002701 145.772720,101.882278 
	C148.588928,99.813004 151.767700,99.124657 154.979034,97.693314 
	C155.695938,97.391922 156.113083,97.246803 156.847321,97.027740 
	C157.566940,96.808128 157.975601,96.679863 158.681946,96.431107 
	C159.182709,96.240021 159.384613,96.165680 159.893204,95.987152 
	C161.469513,95.517616 162.663132,94.967163 164.164703,94.250031 
	C164.936340,93.951759 165.394928,93.814064 166.224915,93.611145 
	C182.662979,87.843407 199.127213,83.634193 216.223755,80.313629 
	C217.807053,79.877869 219.062820,79.841545 220.665314,79.648636 
	C221.502823,79.505142 221.976883,79.401848 222.796722,79.166092 
	C225.084488,78.250328 227.101791,78.682365 229.478683,78.651688 
	C231.722183,78.687927 233.614471,78.479523 235.680420,79.631729 
	C236.456497,79.939934 236.899414,80.021645 237.676987,80.043457 
	C238.464279,80.003914 238.915222,80.043030 239.698151,80.166130 
	C242.624039,81.347313 245.398895,80.842720 248.537079,81.092361 
	C249.455292,81.051529 249.915237,81.101143 250.701767,81.303192 
	C251.763687,81.630417 252.493881,81.852684 253.609894,82.055313 
	C254.459595,82.043327 254.918976,82.091957 255.705475,82.288452 
z"/>
<path fill="#F3CC7F" opacity="1.000000" stroke="none" 
	d="
M233.612778,52.890102 
	C231.400009,51.412209 229.901001,49.800556 231.997223,47.204468 
	C239.293747,47.696697 244.131805,52.268700 248.749420,57.756542 
	C249.843781,58.609100 250.793579,59.151604 250.953094,60.692081 
	C251.247208,61.824631 251.537766,62.636120 251.999512,63.727303 
	C252.294525,64.195755 252.418304,64.384521 252.740524,64.847641 
	C253.210510,66.212257 253.482056,67.302521 253.927765,68.686768 
	C254.728638,69.649261 254.981461,70.455170 254.978668,71.680984 
	C255.047791,73.062721 255.113281,74.119827 255.275452,75.562393 
	C255.576599,76.427864 255.593445,76.914368 255.164551,77.680344 
	C254.486588,77.940811 254.066788,77.928307 253.332169,77.928589 
	C251.865265,78.017395 250.732269,77.956924 249.337662,77.351952 
	C246.633560,77.179489 244.250381,77.127045 241.419815,77.079575 
	C239.650528,76.959389 238.318375,77.017921 236.596619,76.779755 
	C232.482361,75.562729 228.210602,77.746742 224.710419,74.356583 
	C225.450958,71.432495 227.668808,71.758759 229.572449,71.606781 
	C233.410767,71.300346 237.142502,72.305939 241.328140,72.753128 
	C242.983185,73.023003 244.148300,73.616486 245.786102,73.673721 
	C246.357330,73.689842 246.581573,73.691719 247.134216,73.675919 
	C247.674713,73.624268 247.886780,73.590317 248.387756,73.434349 
	C251.216110,67.580559 247.018402,64.073120 244.204559,60.207256 
	C242.744385,58.201168 240.216064,57.265202 238.216949,55.243790 
	C237.964355,55.010239 238.002701,54.999245 237.993912,55.017159 
	C237.824799,54.891552 237.664490,54.748032 237.248535,54.409393 
	C236.173386,53.538647 235.311844,52.943707 233.612778,52.890102 
z"/>
<path fill="#FEDFDF" opacity="1.000000" stroke="none" 
	d="
M254.952271,95.313126 
	C241.527420,92.795006 227.869324,92.000816 213.642349,93.171371 
	C211.674698,93.742203 210.096985,93.407768 208.073334,93.456009 
	C206.663834,93.515305 205.440598,93.855942 206.574722,92.023048 
	C207.996658,91.231087 209.212128,91.649551 210.677277,91.345963 
	C224.631836,88.240448 238.300644,88.728271 252.243683,90.889145 
	C252.709030,92.692741 253.785538,93.821358 254.952271,95.313126 
z"/>
<path fill="#F3D08A" opacity="1.000000" stroke="none" 
	d="
M161.240494,64.323624 
	C164.122467,66.361885 163.773651,69.777496 163.851181,72.879585 
	C163.917389,75.528786 162.117035,75.282349 160.551514,73.962311 
	C157.425217,71.326241 154.220230,68.717819 153.135757,64.111702 
	C155.830414,64.766747 156.561340,67.620323 158.466812,69.379051 
	C159.280457,70.130020 159.771088,71.561920 161.148392,70.788307 
	C162.228806,70.181442 161.495605,69.062248 161.366989,68.130676 
	C161.211349,67.003555 161.197083,65.856926 161.240494,64.323624 
z"/>
<path fill="#FFF4E8" opacity="1.000000" stroke="none" 
	d="
M156.196350,97.840981 
	C153.242569,100.119003 149.830582,100.577705 146.348328,101.781593 
	C145.815002,100.312965 149.232742,99.145477 146.153015,97.223724 
	C150.536758,94.752762 155.376617,93.378410 160.606339,92.008888 
	C160.910095,95.434486 157.993469,95.196632 155.865356,95.971458 
	C155.361633,96.154861 155.548157,96.792549 156.196350,97.840981 
z"/>
<path fill="#FFF4E8" opacity="1.000000" stroke="none" 
	d="
M236.610214,75.801453 
	C238.180283,76.191475 239.357361,76.357521 240.753433,76.804062 
	C239.862885,78.917747 237.103760,76.959328 236.087646,79.517853 
	C233.953888,79.886147 231.894165,79.914085 229.404327,79.838745 
	C227.255402,77.912323 223.728821,80.112602 222.787781,76.480698 
	C227.323334,74.835571 231.792542,75.803871 236.610214,75.801453 
z"/>
<path fill="#F3CC7F" opacity="1.000000" stroke="none" 
	d="
M231.071045,46.538883 
	C221.854309,44.917686 212.402985,42.999825 203.067291,39.775192 
	C212.528290,40.550499 221.926773,42.394936 231.071045,46.538883 
z"/>
<path fill="#FAC65D" opacity="1.000000" stroke="none" 
	d="
M147.224243,44.660393 
	C145.927002,44.999279 144.865280,44.999168 143.128265,45.198345 
	C142.242828,45.312340 142.032684,45.227051 141.692505,44.829025 
	C141.436035,43.183487 141.628006,41.838531 141.190262,40.258926 
	C140.971008,40.008606 140.997086,40.034775 140.979523,40.040573 
	C139.517242,38.830067 140.275879,36.967270 139.454865,35.219833 
	C139.186874,34.501846 139.096649,34.079823 138.974060,33.335312 
	C139.635574,32.315666 140.468750,32.194443 141.790070,32.600449 
	C142.193954,32.779438 142.169830,32.807137 142.167938,32.825405 
	C142.259018,33.185818 142.436218,33.476627 142.938904,33.816250 
	C143.180023,33.916485 143.349899,34.210171 143.363205,34.379292 
	C144.148560,36.683304 145.710297,38.392353 146.790222,40.740196 
	C147.086426,41.375656 147.166367,41.748756 147.251450,42.408516 
	C147.430435,43.223988 147.498169,43.766060 147.224243,44.660393 
z"/>
<path fill="#FFF4E8" opacity="1.000000" stroke="none" 
	d="
M128.665070,92.289597 
	C132.097000,100.756378 132.096939,100.756180 141.391663,97.760223 
	C142.016144,97.558937 142.642639,97.363922 143.650146,97.196838 
	C140.963394,101.419441 135.778152,101.628632 131.846878,101.417686 
	C127.548004,101.187004 127.735992,96.308815 128.665070,92.289597 
z"/>
<path fill="#FEF3CF" opacity="1.000000" stroke="none" 
	d="
M168.253174,60.282227 
	C166.966888,58.972034 166.122940,57.775627 165.127808,56.299908 
	C163.770004,54.851215 162.766022,53.573193 162.814804,51.451618 
	C164.422012,50.310196 163.707260,48.571617 164.723328,47.229698 
	C167.081436,50.813320 167.875336,55.081017 169.360565,59.523636 
	C169.209015,60.068638 168.952255,60.232327 168.253174,60.282227 
z"/>
<path fill="#FFF4E8" opacity="1.000000" stroke="none" 
	d="
M19.265482,131.076508 
	C19.781912,135.441711 19.935980,139.923706 24.810329,142.716370 
	C20.805910,143.330521 18.218262,141.825485 19.045927,137.147797 
	C19.409134,135.095047 16.852739,133.184509 19.265482,131.076508 
z"/>
<path fill="#F3CC7F" opacity="1.000000" stroke="none" 
	d="
M200.759613,38.826630 
	C196.004730,40.011784 192.884171,37.168354 190.026520,33.366806 
	C193.509293,34.862835 197.025742,36.713707 200.759613,38.826630 
z"/>
<path fill="#F3D08A" opacity="1.000000" stroke="none" 
	d="
M152.728943,61.710846 
	C148.978455,59.091705 147.929016,55.099579 148.584351,50.279747 
	C150.138184,53.784359 151.451569,57.564030 152.728943,61.710846 
z"/>
<path fill="#FFF4E8" opacity="1.000000" stroke="none" 
	d="
M141.503143,54.966213 
	C139.130127,51.962849 139.992447,48.741020 140.729187,45.269188 
	C141.190491,44.820679 141.357071,44.649139 141.745010,44.759796 
	C141.966385,45.041985 142.002319,45.003315 141.980560,45.017326 
	C143.266815,48.328659 142.617111,51.627178 141.503143,54.966213 
z"/>
<path fill="#FFF4E8" opacity="1.000000" stroke="none" 
	d="
M132.569275,70.029648 
	C131.763229,72.823639 130.609665,75.662407 129.204651,78.742416 
	C126.882225,74.854416 129.495789,72.443802 132.569275,70.029648 
z"/>
<path fill="#F3CD83" opacity="1.000000" stroke="none" 
	d="
M141.045837,55.403973 
	C142.834045,52.119392 141.611008,48.945087 141.932693,45.473320 
	C142.133362,45.020939 142.307922,45.010544 142.744873,44.998878 
	C143.717789,49.966671 143.430954,54.830616 141.160034,59.726372 
	C140.717438,59.786690 140.591583,59.639465 140.501617,59.203938 
	C140.708405,57.877495 140.879303,56.839359 141.045837,55.403973 
z"/>
<path fill="#FFF4E8" opacity="1.000000" stroke="none" 
	d="
M80.770294,118.773010 
	C78.131866,120.586266 74.809189,119.807899 71.429138,120.747360 
	C73.774857,118.136940 76.949806,117.456650 80.770294,118.773010 
z"/>
<path fill="#FEE0DE" opacity="1.000000" stroke="none" 
	d="
M268.558960,101.693253 
	C266.946808,98.320633 263.037476,99.113205 260.236267,97.262505 
	C262.262817,96.987289 264.495331,96.954712 266.742523,97.759399 
	C268.709900,98.463898 269.363678,99.493454 268.558960,101.693253 
z"/>
<path fill="#FFF4E8" opacity="1.000000" stroke="none" 
	d="
M46.730083,124.694153 
	C44.473007,126.531242 41.488708,125.923775 38.432159,126.687790 
	C40.371876,124.037933 43.217155,123.438835 46.730083,124.694153 
z"/>
<path fill="#F3D08A" opacity="1.000000" stroke="none" 
	d="
M142.139221,32.462616 
	C141.381195,32.852383 140.568420,32.925331 139.348694,33.005550 
	C138.941711,33.012825 138.504944,33.007160 138.287567,32.986076 
	C137.277298,32.403919 137.046341,31.580410 136.976700,30.342884 
	C136.935394,29.549850 136.916336,29.085104 136.863174,28.272984 
	C137.280228,27.600716 137.780762,27.479105 138.661652,27.783272 
	C140.023254,29.385786 141.053879,30.765789 142.139221,32.462616 
z"/>
<path fill="#F3D08A" opacity="1.000000" stroke="none" 
	d="
M162.543747,51.141682 
	C163.591919,52.524532 164.262054,53.934013 164.954407,55.682045 
	C164.014145,56.028687 163.051651,56.036774 161.735962,56.074696 
	C161.172134,54.384323 160.123505,52.531208 162.543747,51.141682 
z"/>
<path fill="#FFF4E8" opacity="1.000000" stroke="none" 
	d="
M56.775898,122.751755 
	C54.763367,124.331093 52.249790,124.558685 49.366646,124.797783 
	C50.856079,121.820610 53.906879,122.836540 56.775898,122.751755 
z"/>
<path fill="#FFF4E8" opacity="1.000000" stroke="none" 
	d="
M67.776649,120.761948 
	C65.588470,121.634354 63.166996,122.225609 60.362572,122.761612 
	C61.997719,120.254539 64.604179,119.802315 67.776649,120.761948 
z"/>
<path fill="#FEF3CF" opacity="1.000000" stroke="none" 
	d="
M167.628174,11.063168 
	C167.162872,13.833416 166.343658,16.664024 165.270691,19.749617 
	C164.242477,16.656149 165.179718,13.742760 167.628174,11.063168 
z"/>
<path fill="#F3D08A" opacity="1.000000" stroke="none" 
	d="
M147.025238,40.636620 
	C144.767593,39.747868 143.483261,37.853165 143.279419,34.923748 
	C145.695587,35.753021 146.630127,37.845009 147.025238,40.636620 
z"/>
<path fill="#FFF4E8" opacity="1.000000" stroke="none" 
	d="
M35.744347,126.721169 
	C34.429462,128.128738 32.563892,127.902328 30.407635,128.097839 
	C31.008615,124.687439 33.417202,126.133034 35.744347,126.721169 
z"/>
<path fill="#FFF4E8" opacity="1.000000" stroke="none" 
	d="
M111.188408,112.202850 
	C109.673622,114.113663 106.963760,113.783974 104.340088,114.701889 
	C105.538826,111.970009 108.175674,112.118790 111.188408,112.202850 
z"/>
<path fill="#FFF4E8" opacity="1.000000" stroke="none" 
	d="
M251.263443,60.862976 
	C250.352829,60.210751 249.748993,59.408360 249.045776,58.313934 
	C250.203125,58.306042 251.512894,56.475021 252.585526,57.820873 
	C253.463425,58.922421 252.537857,59.956295 251.263443,60.862976 
z"/>
<path fill="#FFF4E8" opacity="1.000000" stroke="none" 
	d="
M140.224121,58.950157 
	C140.603989,59.080963 140.670486,59.246292 140.790131,59.672768 
	C140.843292,59.933910 140.778168,60.304737 140.786682,60.492794 
	C140.752121,61.055363 140.589050,61.370262 140.092377,61.783875 
	C139.589172,62.176628 139.315521,62.418968 138.831070,62.843388 
	C136.780945,61.275105 137.042465,60.456215 140.224121,58.950157 
z"/>
<path fill="#F3CC7F" opacity="1.000000" stroke="none" 
	d="
M188.138412,31.450920 
	C185.774704,31.984535 184.647507,30.583239 184.134766,28.082354 
	C185.868423,28.389654 187.157562,29.545721 188.138412,31.450920 
z"/>
<path fill="#F3D08A" opacity="1.000000" stroke="none" 
	d="
M147.003265,45.334030 
	C147.018387,44.484608 147.048050,43.969822 147.167145,43.075108 
	C148.699417,43.934734 149.021027,45.562935 148.770569,47.716423 
	C147.317383,47.824642 146.995987,46.864292 147.003265,45.334030 
z"/>
<path fill="#FFF4E8" opacity="1.000000" stroke="none" 
	d="
M116.770912,110.727249 
	C116.117477,111.975952 114.899231,111.988281 113.371857,112.108978 
	C113.324661,109.646614 114.800339,109.758598 116.770912,110.727249 
z"/>
<path fill="#FEF3CF" opacity="1.000000" stroke="none" 
	d="
M164.383423,23.004642 
	C165.014038,24.129860 165.038422,25.333351 164.182892,26.739538 
	C162.661514,25.634415 162.564102,24.334719 164.383423,23.004642 
z"/>
<path fill="#FFF4E8" opacity="1.000000" stroke="none" 
	d="
M270.259827,88.926750 
	C269.719910,88.128479 269.549866,87.276299 269.371216,86.113853 
	C270.246429,85.295448 271.190247,84.910110 271.703735,86.172279 
	C272.169922,87.318146 272.003265,88.377625 270.259827,88.926750 
z"/>
<path fill="#FFF4E8" opacity="1.000000" stroke="none" 
	d="
M86.825691,117.801636 
	C86.079926,119.035820 84.841537,118.794548 83.331306,118.815903 
	C83.580971,116.507805 85.026222,116.790031 86.825691,117.801636 
z"/>
<path fill="#F3D08A" opacity="1.000000" stroke="none" 
	d="
M139.201447,35.256645 
	C141.714752,35.625237 140.796066,37.677937 140.994064,39.657242 
	C140.961960,40.046375 140.556061,39.989239 140.354050,39.954613 
	C139.251312,39.406345 139.062393,38.565311 139.127136,37.287804 
	C139.147949,36.498692 139.136871,36.044060 139.201447,35.256645 
z"/>
<path fill="#FFF4E8" opacity="1.000000" stroke="none" 
	d="
M249.188354,77.494606 
	C250.179993,77.307854 251.343231,77.383789 252.761917,77.700546 
	C251.708405,79.664597 250.524445,78.904785 249.188354,77.494606 
z"/>
<path fill="#FFF4E8" opacity="1.000000" stroke="none" 
	d="
M123.656784,108.997284 
	C122.799355,110.167244 121.150970,110.233467 119.311974,110.654839 
	C119.692307,108.200806 121.733315,109.237595 123.656784,108.997284 
z"/>
<path fill="#FFF4E8" opacity="1.000000" stroke="none" 
	d="
M135.658859,66.039871 
	C135.895782,67.489532 134.969070,68.370171 133.459686,69.170784 
	C132.942856,67.602623 133.606262,66.491844 135.658859,66.039871 
z"/>
<path fill="#FFF4E8" opacity="1.000000" stroke="none" 
	d="
M132.834839,106.066116 
	C132.017471,106.635895 130.826889,107.164047 129.305542,107.682632 
	C129.420135,105.607208 131.066422,106.081375 132.834839,106.066116 
z"/>
<path fill="#FEF3CF" opacity="1.000000" stroke="none" 
	d="
M163.725677,41.198418 
	C164.837936,41.603611 164.927872,42.486523 164.768127,43.760384 
	C163.178162,43.674820 162.702850,42.807186 163.725677,41.198418 
z"/>
<path fill="#FFF4E8" opacity="1.000000" stroke="none" 
	d="
M138.956512,27.684414 
	C138.512848,27.985395 138.033066,27.965006 137.191193,27.935112 
	C136.248291,27.439508 136.043045,26.779821 136.726624,26.375010 
	C137.780182,25.751099 138.541702,26.244514 138.956512,27.684414 
z"/>
<path fill="#FFF4E8" opacity="1.000000" stroke="none" 
	d="
M138.874664,37.142509 
	C139.475540,37.725876 139.792023,38.498425 140.130280,39.595474 
	C138.339828,39.836575 137.565048,39.127190 138.874664,37.142509 
z"/>
<path fill="#FFF4E8" opacity="1.000000" stroke="none" 
	d="
M101.810745,114.755806 
	C101.204735,115.296791 100.412300,115.587700 99.298553,115.823914 
	C99.278679,114.130966 100.142921,113.671837 101.810745,114.755806 
z"/>
<path fill="#FFF4E8" opacity="1.000000" stroke="none" 
	d="
M255.238480,71.812088 
	C254.154495,71.423927 254.090546,70.541153 254.077484,69.314362 
	C255.761047,69.229156 256.365753,70.034256 255.238480,71.812088 
z"/>
<path fill="#FFF4E8" opacity="1.000000" stroke="none" 
	d="
M91.849937,116.837418 
	C91.232193,117.389885 90.433083,117.676498 89.309616,117.903275 
	C89.280136,116.154549 90.127739,115.631790 91.849937,116.837418 
z"/>
<path fill="#FFF4E8" opacity="1.000000" stroke="none" 
	d="
M136.705154,30.218796 
	C137.851913,30.521704 137.952560,31.404707 138.050903,32.631443 
	C136.378769,32.850098 135.646561,32.126022 136.705154,30.218796 
z"/>
<path fill="#F3CD83" opacity="1.000000" stroke="none" 
	d="
M141.994797,44.650635 
	C141.966385,45.041985 141.494812,45.020710 141.259354,45.006462 
	C140.986404,43.607544 140.948929,42.222870 140.941223,40.423401 
	C142.492645,41.135654 141.869370,42.793652 141.994797,44.650635 
z"/>
<path fill="#FFF4E8" opacity="1.000000" stroke="none" 
	d="
M141.857574,102.816628 
	C141.532867,103.343246 141.051941,103.635254 140.281006,103.895203 
	C140.177353,102.923737 140.274887,101.865761 141.857574,102.816628 
z"/>
<path fill="#FFF4E8" opacity="1.000000" stroke="none" 
	d="
M24.866106,128.794220 
	C24.496517,129.213608 23.993288,129.416229 23.226093,129.518677 
	C23.252157,128.506500 23.669537,127.862564 24.866106,128.794220 
z"/>
<path fill="#FEE0DE" opacity="1.000000" stroke="none" 
	d="
M267.630249,106.012207 
	C267.438843,105.518021 267.512817,104.969124 267.779907,104.207283 
	C268.989441,104.689827 268.955994,105.343918 267.630249,106.012207 
z"/>
<path fill="#FFF4E8" opacity="1.000000" stroke="none" 
	d="
M255.962616,82.147507 
	C255.496201,82.399475 254.954605,82.409760 254.204346,82.227852 
	C254.564850,81.097649 255.187164,80.934105 255.962616,82.147507 
z"/>
<path fill="#FFF4E8" opacity="1.000000" stroke="none" 
	d="
M269.420837,85.207031 
	C268.833160,85.282524 268.446777,85.053520 267.957947,84.617447 
	C268.177795,83.820961 268.572235,83.182739 269.318909,83.609421 
	C269.580780,83.759094 269.530151,84.455681 269.420837,85.207031 
z"/>
<path fill="#FFF4E8" opacity="1.000000" stroke="none" 
	d="
M265.965393,83.603943 
	C265.475037,83.735710 264.945587,83.583191 264.207458,83.230614 
	C264.818451,81.945648 265.454620,82.084229 265.965393,83.603943 
z"/>
<path fill="#FFF4E8" opacity="1.000000" stroke="none" 
	d="
M255.202484,77.947678 
	C254.984711,77.501778 255.063049,77.050247 255.256775,76.273285 
	C255.998047,76.121719 256.700073,76.338188 256.522308,77.137688 
	C256.449463,77.465477 255.855484,77.677414 255.202484,77.947678 
z"/>
<path fill="#FFF4E8" opacity="1.000000" stroke="none" 
	d="
M250.961304,81.163605 
	C250.493393,81.411552 249.953293,81.414963 249.201721,81.233917 
	C249.561325,80.105186 250.184860,79.924286 250.961304,81.163605 
z"/>
<path fill="#FFF4E8" opacity="1.000000" stroke="none" 
	d="
M239.942902,80.004921 
	C239.498825,80.272507 238.965546,80.316803 238.221970,80.172333 
	C238.531433,79.056549 239.134079,78.885628 239.942902,80.004921 
z"/>
<path fill="#F3CC7F" opacity="1.000000" stroke="none" 
	d="
M189.857208,32.743309 
	C189.438156,32.799339 188.887253,32.590897 188.244812,32.087200 
	C188.677292,32.020908 189.201340,32.249870 189.857208,32.743309 
z"/>
<path fill="#FEF3CF" opacity="1.000000" stroke="none" 
	d="
M168.646423,9.122719 
	C168.892731,9.332549 168.793152,9.638165 168.358566,10.049343 
	C168.254379,9.887877 168.346725,9.575745 168.646423,9.122719 
z"/>
<path fill="#FFF4E8" opacity="1.000000" stroke="none" 
	d="
M252.887787,64.889267 
	C252.622360,65.000420 252.391464,64.786407 252.208496,64.243484 
	C252.474686,64.139389 252.696655,64.355904 252.887787,64.889267 
z"/>
<path fill="#FFF4E8" opacity="1.000000" stroke="none" 
	d="
M97.112656,116.137695 
	C97.093658,116.349701 96.823402,116.548347 96.296478,116.700546 
	C96.313660,116.477516 96.587524,116.300919 97.112656,116.137695 
z"/>
<path fill="#F3CD83" opacity="1.000000" stroke="none" 
	d="
M138.609756,63.839684 
	C138.676300,64.041687 138.504959,64.383667 138.044739,64.804726 
	C137.961182,64.582420 138.166534,64.281036 138.609756,63.839684 
z"/>
<path fill="#FFF4E8" opacity="1.000000" stroke="none" 
	d="
M29.131413,128.144714 
	C29.105246,128.349915 28.829147,128.533569 28.301277,128.671997 
	C28.250145,128.332336 28.527473,128.164474 29.131413,128.144714 
z"/>
<path fill="#FFF4E8" opacity="1.000000" stroke="none" 
	d="
M128.645844,89.115402 
	C128.827499,89.174484 128.877243,89.335373 128.884720,89.745232 
	C128.466431,89.825645 128.356918,89.566650 128.645844,89.115402 
z"/>
<path fill="#F3D08A" opacity="1.000000" stroke="none" 
	d="
M143.098053,33.666504 
	C142.880157,33.736115 142.580292,33.555748 142.223236,33.109528 
	C142.449387,33.034622 142.732742,33.225571 143.098053,33.666504 
z"/>
<path fill="#FEE0DE" opacity="1.000000" stroke="none" 
	d="
M266.564789,108.855103 
	C266.244873,108.673218 266.291534,108.378181 266.722473,107.978371 
	C266.990570,108.159790 266.932129,108.449249 266.564789,108.855103 
z"/>
<path fill="#FFF4E8" opacity="1.000000" stroke="none" 
	d="
M127.127861,108.165970 
	C127.114670,108.383255 126.839310,108.590759 126.299072,108.771179 
	C126.311356,108.548134 126.588524,108.352158 127.127861,108.165970 
z"/>
<path fill="#FFF4E8" opacity="1.000000" stroke="none" 
	d="
M138.958435,104.086151 
	C139.054153,104.391380 138.827988,104.587776 138.271606,104.637497 
	C138.202393,104.339012 138.434128,104.167847 138.958435,104.086151 
z"/>
<path fill="#FFF4E8" opacity="1.000000" stroke="none" 
	d="
M144.880920,102.062851 
	C145.001221,102.357300 144.800552,102.563202 144.263748,102.627975 
	C144.185654,102.344666 144.396439,102.173813 144.880920,102.062851 
z"/>
<path fill="#FEE0DE" opacity="1.000000" stroke="none" 
	d="
M258.812805,96.606155 
	C258.639618,96.778290 258.276794,96.738068 257.717133,96.497818 
	C257.887909,96.329796 258.255554,96.361801 258.812805,96.606155 
z"/>
<path fill="#FCE1DD" opacity="1.000000" stroke="none" 
	d="
M269.619019,91.791931 
	C269.440002,91.652367 269.426025,91.323181 269.589050,90.806213 
	C269.772064,90.946404 269.778046,91.274353 269.619019,91.791931 
z"/>
<path fill="#FFF4E8" opacity="1.000000" stroke="none" 
	d="
M217.172974,80.758308 
	C200.098389,85.072021 183.126053,88.904541 166.363403,94.855804 
	C165.022430,93.972336 164.258606,92.965637 163.948624,91.410545 
	C168.811874,88.292091 174.335892,87.497894 179.684921,85.198471 
	C180.230545,84.759209 180.488037,84.521225 181.056702,84.320717 
	C181.986313,84.215439 182.650681,84.122360 183.644257,83.964325 
	C184.236786,83.705147 184.502777,83.514717 185.007050,83.259323 
	C185.242645,83.190575 185.635849,83.185432 185.827423,83.141235 
	C186.689957,82.238091 187.700165,82.645386 188.854767,82.288933 
	C189.168365,82.156616 189.593826,82.121536 189.801544,82.072372 
	C190.162613,81.892700 190.315964,81.762192 190.746613,81.751434 
	C191.566025,81.757286 192.108139,81.643394 192.855103,81.337677 
	C193.701447,80.226562 194.730682,80.648521 195.903534,80.332809 
	C196.627441,80.191307 197.019638,80.136711 197.702347,80.019394 
	C198.737793,79.312508 199.685623,79.621704 200.805054,79.243256 
	C201.085831,79.068596 201.542404,79.053307 201.768173,79.018677 
	C205.963303,77.466156 210.030151,76.351685 214.656647,76.092812 
	C216.927277,76.981583 216.742218,78.911209 217.172974,80.758308 
z"/>
<path fill="#FEFBEC" opacity="1.000000" stroke="none" 
	d="
M243.446075,73.767159 
	C237.214645,74.784187 231.412384,71.723694 225.209641,73.585785 
	C222.318237,75.118851 221.002274,74.492958 221.684799,71.238663 
	C222.571182,70.896889 223.120743,70.756905 223.898880,70.448784 
	C226.744476,68.670036 229.645386,69.928917 232.770966,69.299133 
	C235.836853,69.370499 238.507614,69.607346 241.579651,69.889320 
	C242.968979,69.954788 243.979599,70.163696 245.064178,69.337921 
	C244.748978,65.640274 242.558167,63.063557 240.461075,60.100502 
	C239.452469,59.490711 238.926346,58.854362 238.290375,57.938004 
	C238.071625,56.986057 237.950745,56.326992 237.897110,55.339081 
	C245.735580,57.200356 249.118622,63.162079 250.848892,70.355522 
	C251.168427,71.683929 251.941055,73.714088 249.363144,74.656021 
	C248.814941,74.627083 248.643890,74.598503 248.231766,74.667641 
	C247.990677,74.765350 247.516937,74.849960 247.276337,74.853806 
	C246.121460,73.972641 244.917389,74.028374 243.446075,73.767159 
z"/>
<path fill="#F0CE8D" opacity="1.000000" stroke="none" 
	d="
M221.826538,70.783035 
	C220.836960,73.534943 223.101425,73.294739 224.604019,73.891663 
	C228.466415,76.512825 232.725098,73.921318 236.717468,75.728249 
	C232.536728,76.151268 228.070236,76.277107 223.280563,76.660042 
	C221.100571,78.665741 218.973297,78.545860 216.372284,77.539536 
	C211.455063,76.750984 207.312836,79.114586 202.417480,79.014725 
	C203.556671,77.670761 204.982132,76.119576 207.571075,75.966324 
	C208.106232,76.079842 208.287018,76.197731 208.736145,76.134476 
	C209.004486,75.953323 209.005371,76.004776 208.980774,75.997192 
	C211.473557,74.900429 214.110657,74.179474 216.823502,73.132446 
	C217.676727,70.387627 219.713120,70.580940 221.826538,70.783035 
z"/>
<path fill="#FFFFFE" opacity="1.000000" stroke="none" 
	d="
M163.686920,91.097763 
	C164.757889,92.091377 166.269119,92.575340 165.984589,94.514473 
	C165.637177,94.956955 165.286179,95.073029 164.656677,95.176575 
	C163.073761,95.525414 161.659058,95.548523 160.254974,96.634819 
	C159.988373,96.847984 159.603973,97.063583 159.383606,97.064911 
	C158.984619,97.179672 158.806000,97.293106 158.330933,97.519867 
	C157.608688,97.797379 157.182922,97.961555 156.413116,98.141647 
	C154.961929,95.870697 152.648621,99.222382 151.323685,96.886215 
	C154.017319,94.587318 158.102600,95.153229 160.833725,92.329346 
	C160.995468,92.011665 161.001450,91.996635 161.008636,91.997597 
	C161.144989,91.865936 161.274185,91.733307 161.672028,91.530212 
	C162.402695,91.336586 162.864716,91.213425 163.686920,91.097763 
z"/>
<path fill="#FDF3C2" opacity="1.000000" stroke="none" 
	d="
M216.512115,72.832870 
	C218.294418,73.381561 219.865036,74.127823 217.101074,74.874649 
	C214.734451,75.514099 212.234848,75.661469 209.375122,76.008041 
	C210.937698,74.012215 213.159378,72.584358 216.512115,72.832870 
z"/>
<path fill="#FEE8A9" opacity="1.000000" stroke="none" 
	d="
M167.900040,60.503941 
	C168.084656,60.120464 168.358490,60.072475 169.049042,59.964722 
	C171.333832,61.051731 172.548874,62.650108 172.714569,64.879234 
	C172.731628,65.108910 171.979416,65.678062 171.769135,65.598831 
	C169.585968,64.776245 168.896378,62.712788 167.900040,60.503941 
z"/>
<path fill="#F0CE8D" opacity="1.000000" stroke="none" 
	d="
M232.712723,69.074387 
	C230.612915,70.814034 227.688873,69.680565 224.555847,70.246338 
	C226.513123,67.770645 229.558517,69.499947 232.712723,69.074387 
z"/>
<path fill="#FDF3CF" opacity="1.000000" stroke="none" 
	d="
M244.880173,69.111153 
	C245.379822,71.209488 245.274200,71.260452 242.180023,70.200836 
	C242.667633,69.151878 243.605759,69.167206 244.880173,69.111153 
z"/>
<path fill="#EFCB7B" opacity="1.000000" stroke="none" 
	d="
M238.163055,58.014297 
	C238.798782,58.195412 239.405090,58.745701 240.099487,59.599014 
	C239.111649,59.925083 238.251480,59.656296 238.163055,58.014297 
z"/>
<path fill="#F0CE8D" opacity="1.000000" stroke="none" 
	d="
M188.811523,82.104965 
	C188.538055,82.965630 187.628555,83.054306 186.362793,83.103905 
	C186.547791,82.088417 187.477341,82.015083 188.811523,82.104965 
z"/>
<path fill="#F0CE8D" opacity="1.000000" stroke="none" 
	d="
M195.873718,80.172218 
	C195.403961,80.540726 194.572662,80.835541 193.400665,81.138107 
	C193.562592,80.059715 194.517334,80.032173 195.873718,80.172218 
z"/>
<path fill="#F0CE8D" opacity="1.000000" stroke="none" 
	d="
M200.740601,79.031952 
	C200.496353,79.932068 199.589111,79.981560 198.333313,79.983459 
	C198.559967,79.052071 199.458084,78.974731 200.740601,79.031952 
z"/>
<path fill="#EFCB7B" opacity="1.000000" stroke="none" 
	d="
M234.951828,53.482567 
	C234.403366,53.877777 233.866699,53.680393 233.163589,53.244148 
	C232.997131,53.005280 233.097122,52.899170 233.146927,52.845924 
	C233.809830,52.386856 234.396912,52.453556 234.951828,53.482567 
z"/>
<path fill="#FEE8A9" opacity="1.000000" stroke="none" 
	d="
M173.478851,67.456268 
	C173.519989,67.432457 173.437729,67.480080 173.478851,67.456268 
z"/>
<path fill="#F3CD83" opacity="1.000000" stroke="none" 
	d="
M140.129608,61.826057 
	C140.030823,61.624241 140.198822,61.314201 140.581009,60.842506 
	C140.662262,61.026508 140.529312,61.372169 140.129608,61.826057 
z"/>
<path fill="#EFCB7B" opacity="1.000000" stroke="none" 
	d="
M236.519165,55.425171 
	C236.669388,55.438263 236.368942,55.412079 236.519165,55.425171 
z"/>
<path fill="#FEFBEC" opacity="1.000000" stroke="none" 
	d="
M237.714783,53.831409 
	C238.099411,54.086025 238.129349,54.279732 238.072205,54.754257 
	C237.823212,55.123447 237.661285,55.211819 237.234604,55.382320 
	C236.969833,55.464451 236.983734,55.236748 236.987122,55.122738 
	C236.835541,54.512955 236.958740,54.100216 237.714783,53.831409 
z"/>
<path fill="#EFCB7B" opacity="1.000000" stroke="none" 
	d="
M235.950378,55.038967 
	C235.627396,54.930664 235.380890,54.736710 235.061066,54.278610 
	C234.940018,54.075157 234.982056,54.022736 235.004074,53.997368 
	C235.480209,53.822330 235.854660,53.935753 236.090942,54.635986 
	C236.032455,54.959785 235.979080,55.014004 235.950378,55.038967 
z"/>
<path fill="#FDF3C2" opacity="1.000000" stroke="none" 
	d="
M208.734650,75.945610 
	C208.838013,76.368172 208.660995,76.758759 208.027588,76.147430 
	C208.105240,75.953926 208.285019,75.945915 208.734650,75.945610 
z"/>
<path fill="#F0CE8D" opacity="1.000000" stroke="none" 
	d="
M190.912872,81.721413 
	C190.858536,81.921532 190.693161,81.971878 190.268524,82.022705 
	C190.273453,81.872681 190.537628,81.722160 190.912872,81.721413 
z"/>
<path fill="#F0CE8D" opacity="1.000000" stroke="none" 
	d="
M184.981583,83.201736 
	C184.987747,83.406609 184.732849,83.622650 184.225723,83.869019 
	C184.222488,83.670540 184.471512,83.441719 184.981583,83.201736 
z"/>
<path fill="#FFF4E8" opacity="1.000000" stroke="none" 
	d="
M161.737885,91.425858 
	C161.798523,91.668243 161.610336,91.819519 161.195953,91.956070 
	C161.080551,91.703415 161.253647,91.501221 161.737885,91.425858 
z"/>
<path fill="#F0CE8D" opacity="1.000000" stroke="none" 
	d="
M181.045807,84.299301 
	C181.056198,84.520599 180.790451,84.732681 180.271851,84.995827 
	C180.269211,84.794624 180.519424,84.542351 181.045807,84.299301 
z"/>
<path fill="#FFFFFE" opacity="1.000000" stroke="none" 
	d="
M215.847504,77.517822 
	C218.021408,77.149704 220.055771,77.034988 222.523743,76.918701 
	C224.332321,79.180405 227.415512,76.777031 228.880371,79.393196 
	C227.345673,79.933075 225.717163,80.130676 223.793167,80.266174 
	C223.136307,80.159065 222.814240,80.255714 222.283997,80.576996 
	C220.651398,80.837105 219.260635,80.993927 217.449066,81.117584 
	C216.595184,79.977219 214.349197,79.592445 215.847504,77.517822 
z"/>
<path fill="#FFA0A1" opacity="1.000000" stroke="none" 
	d="
M201.375122,92.483643 
	C204.290909,93.032951 203.246674,94.263664 201.855469,94.692879 
	C199.692825,95.360100 197.362823,95.340897 194.472107,94.584473 
	C197.018372,93.809090 199.011246,93.202217 201.375122,92.483643 
z"/>
<path fill="#FFF4E8" opacity="1.000000" stroke="none" 
	d="
M160.331757,96.874687 
	C160.365631,94.604126 162.089828,95.062477 163.980347,95.110245 
	C163.378906,96.244263 162.001373,96.518173 160.331757,96.874687 
z"/>
<path fill="#FBB9BA" opacity="1.000000" stroke="none" 
	d="
M207.930862,93.633957 
	C209.156357,93.306229 210.709000,93.145844 212.727509,93.067413 
	C211.665863,94.256966 209.941879,93.877281 207.930862,93.633957 
z"/>
<path fill="#FBB9BA" opacity="1.000000" stroke="none" 
	d="
M210.652374,91.145172 
	C210.075302,92.275345 208.830658,92.030266 207.285339,91.975479 
	C207.924866,91.136772 209.104446,91.071022 210.652374,91.145172 
z"/>
<path fill="#FFF4E8" opacity="1.000000" stroke="none" 
	d="
M158.266785,97.656898 
	C158.188980,97.360504 158.417084,97.181641 158.941010,97.081421 
	C159.049057,97.386955 158.827682,97.591743 158.266785,97.656898 
z"/>
<path fill="#FFF4E8" opacity="1.000000" stroke="none" 
	d="
M222.314178,80.726517 
	C222.345139,80.502525 222.648148,80.324783 223.224426,80.175552 
	C223.193863,80.393639 222.890030,80.583206 222.314178,80.726517 
z"/>
<path fill="#FFF3C3" opacity="1.000000" stroke="none" 
	d="
M236.271606,54.979118 
	C235.924774,54.641411 235.735077,54.383320 235.244720,54.078751 
	C234.597336,53.631493 234.168564,53.290989 233.468262,52.871582 
	C235.156219,49.216831 236.260910,52.865467 237.905884,53.611408 
	C237.793198,54.109119 237.516922,54.325920 237.115570,54.775726 
	C236.990509,55.008728 236.510742,54.998447 236.271606,54.979118 
z"/>
<path fill="#FFF4D1" opacity="1.000000" stroke="none" 
	d="
M243.258789,74.022224 
	C244.529129,72.741989 245.852264,72.480324 246.960754,74.540825 
	C245.788437,74.977158 244.523727,75.225014 243.258789,74.022224 
z"/>
<path fill="#FFF4D1" opacity="1.000000" stroke="none" 
	d="
M248.244232,74.780746 
	C248.170151,74.431602 248.426666,74.323250 248.873123,74.547974 
	C248.823273,74.702484 248.660538,74.749313 248.244232,74.780746 
z"/>
</svg>